<svg xmlns="http://www.w3.org/2000/svg" viewBox="0 0 100 100" fill="none">
  <!-- Cloud body -->
  <ellipse cx="50" cy="60" rx="36" ry="22" fill="#0e1f35"/>
  <circle cx="34" cy="55" r="16" fill="#0e1f35"/>
  <circle cx="62" cy="52" r="19" fill="#0e1f35"/>
  <circle cx="50" cy="46" r="20" fill="#0e1f35"/>

  <!-- Cloud stroke -->
  <path d="M18 66 Q14 66 12 62 Q10 58 13 54 Q11 50 14 47 Q17 44 21 45 Q22 38 28 35 Q35 32 41 36 Q44 30 51 28 Q59 26 65 32 Q70 29 76 33 Q82 37 81 44 Q87 44 89 50 Q91 57 86 61 Q83 65 78 65 Z" fill="#0d3850" stroke="#22d3ee" stroke-width="2.5" stroke-linejoin="round"/>

  <!-- Lightning bolt through cloud -->
  <polygon points="55,32 44,56 52,56 45,80 64,52 55,52" fill="#22d3ee"/>
  <!-- Lightning glow -->
  <polygon points="55,32 44,56 52,56 45,80 64,52 55,52" fill="none" stroke="#67e8f9" stroke-width="1.5" stroke-linejoin="round" opacity="0.5"/>
</svg>
